<?xml version="1.0" encoding="UTF-8"?>
<svg id="Layer_2" data-name="Layer 2" xmlns="http://www.w3.org/2000/svg" xmlns:xlink="http://www.w3.org/1999/xlink" viewBox="0 0 377.53 102.2">
  <defs>
    <style>
      .cls-1 {
        fill: url(#linear-gradient-2);
      }

      .cls-2 {
        fill: url(#linear-gradient);
      }
    </style>
    <linearGradient id="linear-gradient" x1="0" y1="49.97" x2="87.72" y2="49.97" gradientUnits="userSpaceOnUse">
      <stop offset="0" stop-color="#8e2de2"/>
      <stop offset="1" stop-color="#4a00e0"/>
    </linearGradient>
    <linearGradient id="linear-gradient-2" x1="23.93" y1="71.65" x2="106.53" y2="71.65" xlink:href="#linear-gradient"/>
  </defs>
  <g id="Layer_1-2" data-name="Layer 1">
    <g>
      <g>
        <path class="cls-2" d="m29.63,3.18L1.16,46.53c-1.32,2.01-1.52,4.56-.53,6.76l21.05,46.66,9.2-14.01c4.32-6.57,5.08-14.86,2.03-22.11l-14.48-33.3c-.5-1.15-.38-2.46.3-3.51h0c.69-1.05,1.87-1.68,3.13-1.67l37.11.4c7.87-.07,15.19-4.07,19.52-10.65l9.23-14.05L35.66,0c-2.42-.05-4.7,1.15-6.03,3.17Z"/>
        <path class="cls-1" d="m95.35,77.33l-14.25,21.69c-1.32,2.02-3.59,3.22-6,3.17l-51.17-.77,9.21-14.02c4.31-6.56,11.61-10.57,19.47-10.66l36.31.06h.04c1.66,0,2.3-2.17.91-3.08l-34.31-22.53,13.62-7.73c5.92-3.36,13.23-3.12,18.92.62l16.2,10.64c2.27,1.49,2.91,4.55,1.41,6.82l-10.37,15.78Z"/>
      </g>
      <g>
        <g>
          <g>
            <path d="m285.76,45.29c0,1.02-.35,1.9-1.03,2.58s-1.59,1.05-2.65,1.05c-1.01,0-1.88-.35-2.58-1.05s-1.06-1.56-1.06-2.58.35-1.92,1.06-2.61c.71-.69,1.58-1.05,2.58-1.05,1.06,0,1.96.35,2.65,1.05.68.68,1.03,1.56,1.03,2.61Z"/>
            <path d="m266.74,42.33c-.69.83-1.03,1.73-1.03,2.73,0,.9.29,1.69.86,2.41.58.73,1.43,1.29,2.57,1.71,1.71.63,3.92.8,6.46.44.84-.12,1.62-.29,2.37-.5l.31-.08,2.03,5.82-.29.12c-1.06.49-2.2.87-3.38,1.13-1.16.24-2.34.38-3.52.38-1.64,0-3.29-.24-4.91-.72-1.59-.49-3.03-1.22-4.3-2.16-1.29-.98-2.3-2.18-3.02-3.56-.75-1.39-1.11-3.02-1.11-4.84,0-1.55.31-3.07.94-4.55.61-1.47,1.56-2.83,2.8-4.01,1.25-1.18,2.81-2.13,4.65-2.81,1.82-.69,4-1.05,6.46-1.05h6.93v-5.7c0-1.31-.33-2.39-.98-3.32-.67-.92-1.64-1.67-2.88-2.23-1.28-.53-2.83-.8-4.58-.8-1.35,0-2.72.15-4.09.46-1.31.31-2.49.69-3.51,1.14l-.31.15-2.41-5.38.26-.16c1.51-.95,3.14-1.69,4.87-2.18,1.69-.48,3.47-.71,5.29-.71,2.01,0,3.9.3,5.61.91,1.71.58,3.24,1.48,4.54,2.65,1.28,1.16,2.28,2.54,3.02,4.13.72,1.63,1.07,3.37,1.07,5.33v5.7h1.98l-1.07,6.68h-13.74c-1.86,0-3.47.26-4.8.8-1.33.52-2.37,1.22-3.07,2.07h0Z"/>
            <rect x="294.23" y=".69" width="5.9" height="38.76"/>
            <path d="m365.85,48.35c0,1.03-.35,1.9-1.03,2.6-.69.69-1.58,1.05-2.65,1.05-1.01,0-1.86-.35-2.57-1.05-.71-.67-1.06-1.55-1.06-2.6s.35-1.93,1.07-2.61c.69-.68,1.55-1.02,2.56-1.02,1.06,0,1.96.34,2.65,1.03.68.69,1.03,1.56,1.03,2.6Z"/>
            <path d="m377.53,32.77l-1.11,6.68h-62.51v1.5c0,2.22-.44,4.15-1.29,5.74-.87,1.6-2.11,2.87-3.66,3.73-1.56.87-3.47,1.33-5.67,1.4h-.3l-1.09-6.4h.41c1.5,0,2.62-.15,3.45-.46.82-.3,1.37-.76,1.71-1.41.37-.68.54-1.54.54-2.58v-24.61h5.89v16.44h55.71v-5.7c0-1.31-.31-2.38-.98-3.32-.65-.95-1.59-1.67-2.86-2.23-1.26-.53-2.8-.8-4.57-.8-1.39,0-2.77.15-4.11.46-1.32.31-2.49.69-3.49,1.14l-.31.14-2.46-5.37.26-.16c1.52-.95,3.17-1.69,4.91-2.16,1.7-.49,3.47-.72,5.25-.72,2.05,0,3.96.3,5.67.91,1.71.58,3.24,1.48,4.54,2.65,1.28,1.16,2.3,2.56,3,4.13.73,1.63,1.09,3.36,1.09,5.33v5.7h1.97Z"/>
          </g>
          <g>
            <path d="m248.65,48.26c0,1.02-.35,1.9-1.03,2.58s-1.59,1.05-2.65,1.05-1.86-.35-2.57-1.05c-.71-.67-1.06-1.55-1.06-2.58s.35-1.93,1.07-2.62c.69-.68,1.55-1.02,2.56-1.02,1.06,0,1.96.34,2.65,1.03s1.03,1.56,1.03,2.61Z"/>
            <path d="m249.88,16.24v23.11h-31.76c-2.27,0-4.16-.39-5.64-1.14-.53-.29-1.03-.63-1.45-1.01-.46.39-.97.73-1.51,1.01-1.47.75-3.37,1.14-5.64,1.14h-22.59c-2.28,0-4.17-.39-5.66-1.14-.45-.23-.88-.5-1.31-.84-.41.34-.84.65-1.31.9-2.39,1.31-5.06,1.41-7.5.39-1.1-.48-2.09-1.21-2.94-2.18-.01-.01-.03-.03-.03-.04-.64.75-1.37,1.36-2.22,1.82-2.38,1.31-5,1.41-7.5.39-.49-.22-.95-.46-1.36-.76-.12.46-.24.92-.39,1.36-.69,2.07-1.71,3.92-3.05,5.48-1.37,1.6-2.98,2.81-4.93,3.68-1.92.87-4.17,1.32-6.72,1.32s-4.79-.45-6.69-1.32c-1.94-.87-3.59-2.12-4.88-3.7-1.32-1.56-2.31-3.4-2.98-5.44s-.99-4.28-.99-6.69c0-1.32.1-2.65.3-3.97.19-1.31.46-2.6.82-3.86l.08-.3,5.64,1.05-.08.34c-.24,1.06-.46,2.19-.64,3.47-.15,1.07-.22,2.15-.22,3.28,0,2.26.37,4.13,1.11,5.71.77,1.56,1.84,2.72,3.28,3.53,1.44.8,3.21,1.21,5.25,1.21s3.89-.41,5.34-1.21c1.44-.82,2.56-2,3.33-3.55.75-1.55,1.14-3.48,1.14-5.7v-11.83h5.9v10.07c.23.6.63,1.09,1.18,1.45,1.5.97,3.21.83,4.53-.29.72-.61,1.07-1.52,1.07-2.8v-10.74h5.9v11.07c0,.46-.01.86-.05,1.22.23.64.63,1.14,1.22,1.52.69.45,1.4.67,2.15.67.88,0,1.67-.31,2.42-.94.69-.6,1.03-1.52,1.03-2.8v-12.97h5.95v13.3c0,.65-.04,1.28-.12,1.85.01.03.01.04.01.05.19.48.54.77,1.1.95.64.18,1.58.29,2.79.29h22.59c1.22,0,2.2-.11,2.81-.29.53-.18.88-.49,1.07-.94.2-.52.31-1.29.31-2.24V.57h5.9v28.64c0,1.01.09,1.77.29,2.24.18.46.53.76,1.09.94.65.18,1.58.29,2.77.29h25.86v-16.44h5.9Z"/>
          </g>
        </g>
        <g>
          <g>
            <path d="m152.71,75.46c-.09,9.25-6.45,16.16-15.65,16.16s-16.3-6.81-16.3-16.8,7.14-16.85,16.43-16.85c5.57,0,9.99,2.12,12.84,5.48l-4.6,3.64c-1.84-2.03-4.74-3.54-8.1-3.54-5.8,0-10.31,3.96-10.31,11.19s4.69,11.46,10.13,11.46c4.83,0,8.56-2.86,9.39-8.19h-8.84v-5.25h15.01c0,.64.05,2.12,0,2.71Z"/>
            <path d="m176.7,66.67h5.85v24.35h-5.85v-4.42c-2.03,3.18-4.88,4.97-8.7,4.97-6.31,0-11.97-4.37-11.97-12.71s5.48-12.84,11.97-12.84c3.73,0,6.63,1.52,8.7,4.42v-3.77Zm0,12.15v-.23c-1.19-4.7-4.23-7.6-7.82-7.6-3.78,0-6.67,2.62-6.67,7.78s2.9,7.82,6.67,7.82,6.72-3.22,7.82-7.78Z"/>
            <path d="m202.26,66.53l-.83,5.02c-.64-.23-1.52-.32-2.16-.32-2.99,0-5.71,2.58-7.32,6.77v13.03h-5.89v-24.35h5.89v4.51c1.89-2.9,4.51-4.97,7.92-4.97.88,0,1.7.09,2.39.32Z"/>
            <path d="m226.72,66.67h5.85v24.35h-5.85v-4.42c-2.03,3.18-4.88,4.97-8.7,4.97-6.3,0-11.97-4.37-11.97-12.71s5.48-12.84,11.97-12.84c3.73,0,6.63,1.52,8.7,4.42v-3.77Zm0,12.15v-.23c-1.19-4.7-4.23-7.6-7.82-7.6-3.78,0-6.67,2.62-6.67,7.78s2.9,7.82,6.67,7.82,6.72-3.22,7.82-7.78Z"/>
            <path d="m256.75,66.67h5.85v24.3c0,6.03-5.57,10.31-13.35,10.31-4.33,0-8.84-1.2-11.56-2.99l.83-5.2c2.99,1.89,7.41,2.95,10.68,2.95,4.1,0,7.55-1.84,7.55-5.98v-4.01c-2.03,3.08-4.92,4.56-8.75,4.56-6.26,0-11.92-3.87-11.92-12.15s5.48-12.43,11.92-12.43c3.77,0,6.67,1.56,8.75,4.46v-3.82Zm0,11.92v-.19c-1.19-4.6-4.23-7.41-7.87-7.41s-6.68,2.35-6.68,7.36c0,4.74,2.95,7.27,6.72,7.27s6.67-2.53,7.82-7.04Z"/>
            <path d="m272.46,80.71c.6,4.14,3.22,6.21,7.92,6.21,2.99,0,5.48-.51,8.33-2.03l1.01,4.24c-2.67,1.56-6.08,2.53-10.27,2.53-8.47,0-13.12-4.79-13.12-12.66s5.29-12.98,12.52-12.98c6.72,0,12.01,4.05,12.01,12.8,0,.74-.05,1.38-.14,1.89h-18.28Zm12.34-3.68c-.42-4.23-2.44-6.35-6.03-6.35s-5.8,2.16-6.31,6.35h12.34Z"/>
          </g>
          <g>
            <path d="m317.14,74.01c0,7.18-5.89,10.91-12.11,10.91h-4.28v10.59h-6.08v-32.36h10.36c6.49,0,12.11,3.5,12.11,10.86Zm-13.3,5.89c4.7,0,7.14-2.3,7.14-5.71,0-4.01-2.39-6.03-7.18-6.03h-3.04v11.74h3.08Z"/>
            <path d="m321.01,95.51v-32.36h5.89v32.36h-5.89Z"/>
            <path d="m348.34,71.16h5.85v24.35h-5.85v-4.56c-2.21,3.32-5.16,5.02-8.93,5.02-5.02,0-8.75-2.58-8.75-10.5v-14.32h5.85v13.95c0,4.1,1.56,5.89,4.42,5.89,3.22,0,5.62-2.21,7.41-6.86v-12.98Z"/>
            <path d="m357.61,93.95l1.01-4.79c2.07,1.33,5.29,2.44,8.19,2.44s4.79-.88,4.79-2.86c0-4.83-13.67-.6-13.67-10.4,0-4.74,3.78-7.87,10.13-7.87,3.17,0,6.35.88,8.61,2.07l-1.06,4.74c-2.16-1.24-4.74-2.16-7.27-2.16-2.67,0-4.56,1.06-4.56,2.86,0,5.2,13.67,1.01,13.67,10.17,0,4.79-4.56,7.97-10.82,7.97-3.68,0-7.05-1.11-9.03-2.16Z"/>
          </g>
        </g>
      </g>
    </g>
  </g>
</svg>